<svg xmlns="http://www.w3.org/2000/svg" width="1080" height="1080" fill="none" viewBox="0 0 1080 1080">
  <!-- <path fill="#0FF" fill-rule="evenodd" d="M92 549.628v245.1L547 1047l455-252.272V290.184L547 69 92 290.184v259.444Z" clip-rule="evenodd"/> -->
  <path fill="#000" fill-rule="evenodd" d="M92 549.628v245.1L547 1047l455-252.272V290.184L547 69 92 290.184v259.444Z" clip-rule="evenodd"/>
  <path fill="#000" fill-rule="evenodd" d="M92 537.576v251.808L548.5 1019 1005 789.384V299.771L548.5 76 92 299.771v237.805Zm332.018-150.003c26.825 6.79 48 30.789 50.482 54.927 5.784 56.269-82.149 86.272-119.5 40.5-33.914-41.56 14.504-109.226 69.018-95.427Zm270.424.543c16.356 1.981 25.504 5.947 36.072 15.641C772.008 441.818 731.188 512.74 674 502c-65.788-12.355-73.11-95.623-8-109.5 9.11-1.942 16.17-5.869 28.442-4.384ZM202 555c38.047 10.25 60.202 53.062 43 87-6.189 12.212-31.676 28.442-43 30-1.395.192-3.336.809-4.314 1.371-3.601 2.069-32.282-3.154-39.747-5.566C82.293 643.373 125.059 534.269 202 555Zm715 0c22.253 5.323 49.186 16.925 60.227 36.319 6.887 12.097 3.814 40.515-5.947 55.019-6.307 9.369-30.243 24.089-34.879 21.448-.51-.29-1.167.133-1.458.941-3.285 9.079-52.407 5.158-66.943-8.227-42.741-39.36-8.813-119.33 49-105.5ZM562.5 891.5c35.537 9.855 45.977 58.681 19.279 82.144-42.056 36.966-109.653-9.861-81.279-56.644 11.733-19.345 39.796-31.658 62-25.5Z" clip-rule="evenodd"/>
  <path fill="#fff" fill-rule="evenodd" d="M520.828 40.067c-8.684 2.008-23.785 8.339-38.13 15.984-4.816 2.567-16.919 8.977-26.896 14.244-9.976 5.267-18.42 9.87-18.764 10.23-.68.71-11.915 6.283-18.452 9.154-2.237.982-4.066 2.197-4.066 2.698 0 .504-.679.914-1.508.914-.831 0-6.698 2.856-13.039 6.345-6.343 3.49-12.137 6.346-12.878 6.346-.741 0-1.347.44-1.347.978 0 .539-2.111 1.819-4.691 2.845-2.58 1.027-5.536 2.379-6.568 3.004-6.444 3.906-23.631 12.785-24.751 12.785-.738 0-2.085.671-2.994 1.492-.909.82-5.594 3.538-10.41 6.041-4.816 2.503-9.696 5.075-10.843 5.719a276.702 276.702 0 0 1-5.63 3.017c-1.949 1.016-7.202 3.763-11.674 6.103-4.472 2.341-9.538 4.876-11.259 5.637-1.72.76-3.871 2.037-4.78 2.838-.909.8-2.389 1.456-3.287 1.456-.898 0-2.307.747-3.129 1.661-.822.912-4.972 3.221-9.222 5.128-4.251 1.907-10.91 5.183-14.799 7.28-3.888 2.097-11.488 6.105-16.888 8.906-12.406 6.435-42.396 22.238-48.059 25.323a531.945 531.945 0 0 1-7.419 3.964c-1.72.893-6.787 3.573-11.259 5.954-4.472 2.382-11.981 6.222-16.686 8.533-4.705 2.31-9.496 4.72-10.647 5.355-11.889 6.553-22.819 12.113-23.81 12.113-.67 0-1.991.712-2.933 1.581-.943.87-3.658 2.503-6.032 3.632-16.912 8.032-32.247 27.301-40.84 51.317-3.18 8.888-5.913 444.266-2.995 477.042 1.796 20.172 23.196 51.018 42.645 61.47 3.096 1.663 5.911 3.319 6.255 3.679.344.36 5.41 2.913 11.259 5.674 5.848 2.759 13.803 6.773 17.677 8.919 3.874 2.144 7.674 3.899 8.444 3.899.77 0 1.4.441 1.4.978 0 .539 2.112 1.82 4.691 2.845 2.581 1.027 5.536 2.381 6.568 3.01 2.519 1.533 29.677 15.405 34.402 17.571 7.828 3.587 29.254 14.29 41.282 20.62 11.375 5.987 26.574 13.628 36.278 18.239 2.064.98 4.497 2.461 5.406 3.293.909.831 2.418 1.51 3.351 1.51.933 0 2.442.676 3.351 1.503.909.826 4.186 2.696 7.282 4.156 3.096 1.46 7.881 3.865 10.634 5.345a732.078 732.078 0 0 0 8.131 4.308c1.72.889 5.379 2.822 8.131 4.295 2.752 1.473 14.011 7.295 25.02 12.936 11.008 5.643 20.86 10.762 21.892 11.378 1.032.616 3.788 1.926 6.125 2.911 2.335.987 5.05 2.534 6.031 3.438.98.905 2.548 1.645 3.481 1.645.933 0 2.442.65 3.351 1.443.909.793 4.186 2.621 7.282 4.062 3.097 1.441 7.689 3.777 10.205 5.191 7.692 4.324 17.509 9.521 26.699 14.136 4.816 2.42 9.05 4.79 9.408 5.28.359.49 2.047 1.44 3.752 2.12 3.12 1.23 5.189 2.34 11.542 6.21 1.895 1.15 3.445 1.72 3.445 1.26 0-.46.986-.04 2.189.94 1.204.98 5.567 3.22 9.695 4.99 4.129 1.76 7.788 3.55 8.132 3.98.818 1 16.097 7.66 25.645 11.17 23.086 8.48 57.133 5.69 84.229-6.91 15.68-7.28 17.065-8 17.516-9.06.23-.53 1.025-.97 1.768-.97.742 0 7.486-3.25 14.984-7.21 7.5-3.97 15.148-7.94 16.998-8.83 1.849-.89 3.644-1.94 3.988-2.32.55-.62 3.479-2.08 18.489-9.219 1.871-.892 3.696-2.027 4.054-2.525.359-.496 2.048-1.477 3.753-2.179 4.401-1.81 22.329-11.259 30.624-16.139 2.064-1.214 7.13-3.796 11.259-5.738 4.128-1.941 8.35-4.025 9.382-4.63 1.032-.604 6.661-3.56 12.51-6.567 5.848-3.008 11.047-6.017 11.552-6.686.506-.669.927-.792.939-.273.01.519 1.568 0 3.464-1.154 6.416-3.905 8.43-5.024 12.192-6.77 2.064-.957 5.723-2.842 8.131-4.19 4.657-2.605 23.563-12.042 31.9-15.923 2.752-1.282 9.507-4.669 15.011-7.527 5.505-2.858 11.979-6.102 14.387-7.209 2.408-1.106 4.66-2.342 5.004-2.746.344-.404 2.595-1.584 5.003-2.623 5.128-2.21 13.94-6.59 24.421-12.136 7.963-4.215 12.308-6.434 26.244-13.405 4.816-2.409 8.944-4.808 9.173-5.333.231-.525 1.081-.954 1.892-.954.812 0 9.913-4.464 20.224-9.918 10.312-5.456 22.691-11.844 27.507-14.196 14.983-7.319 23.454-12.745 32.324-20.703 12.184-10.929 17.604-18.737 24.564-35.363.54-1.269 1.65-3.851 2.48-5.737 3.61-8.232 5.93-445.14 2.5-471.169-2.13-16.134-2.5-17.73-4.8-20.766-1.26-1.661-2.02-3.741-1.69-4.623.41-1.073.08-1.3-.99-.687-1.01.576-1.3.455-.78-.325.46-.683-.73-4.007-2.64-7.389-9.57-16.928-23.385-28.964-46.272-40.312-11.708-5.806-32.07-16.074-34.094-17.195-9.759-5.402-31.216-16.452-37.529-19.328-2.408-1.096-4.672-2.35-5.029-2.786-.359-.438-2.048-1.372-3.753-2.079-1.707-.707-5.169-2.426-7.694-3.821-4.543-2.511-12.577-6.622-21.052-10.775-2.409-1.18-4.672-2.502-5.031-2.938-.357-.437-2.047-1.338-3.752-2.005-1.707-.665-6.481-3.054-10.609-5.306-4.128-2.251-9.476-4.983-11.884-6.07-2.408-1.088-4.66-2.287-5.004-2.665-.344-.377-2.144-1.416-4.001-2.307-3.604-1.73-34.137-17.691-37.281-19.489-1.984-1.134-17.235-8.933-28.773-14.714a515.17 515.17 0 0 1-13.336-6.973c-3.552-1.939-6.789-3.221-7.193-2.847-.406.372-.737.106-.737-.593s-1.97-1.928-4.379-2.731c-2.408-.803-4.378-1.824-4.378-2.269 0-.446-1.547-1.4-3.44-2.122-1.893-.721-5.692-2.577-8.444-4.123-2.752-1.547-8.1-4.252-11.884-6.012-3.785-1.76-7.624-3.847-8.532-4.639-.908-.792-3.019-1.757-4.691-2.144-1.672-.387-3.04-1.126-3.04-1.643 0-.517-1.97-1.54-4.379-2.272-2.408-.732-4.378-1.77-4.378-2.307 0-.537-1.97-1.575-4.378-2.307-2.408-.733-4.379-1.699-4.379-2.144 0-.446-1.547-1.421-3.44-2.165-3.465-1.365-6.581-2.99-30.982-16.17-7.343-3.964-13.82-7.21-14.395-7.21-.574 0-1.808-.648-2.744-1.442-5.403-4.578-25.94-13.2-37.682-15.818-13.429-2.993-40.871-3.097-53.393-.2Zm46.626 122.509c32.261 6.627 68.604 36.472 74.103 60.854.244 1.076 1.331 5.05 2.418 8.832 4.614 16.059.608 44.396-8.078 57.153-.648.952-2.299 3.635-3.667 5.962-9.281 15.783-33.855 34.2-53.519 40.11-5.317 1.597-5.317 1.597-5.317 131.106 0 147.68-.957 134.205 9.163 128.964 4.249-2.2 9.414-4.768 11.478-5.705 2.064-.938 5.723-2.813 8.131-4.166 2.409-1.353 8.882-4.775 14.387-7.603a5023.231 5023.231 0 0 0 15.637-8.064c3.096-1.608 11.54-5.785 18.765-9.285 7.224-3.499 13.549-6.924 14.054-7.61.506-.688.927-.877.938-.42.01.456 3.351-.973 7.423-3.173 4.071-2.201 7.972-4.002 8.667-4.002.696 0 2.008-.653 2.918-1.45.908-.798 5.311-3.194 9.784-5.325 4.472-2.132 8.412-4.204 8.756-4.607.344-.403 7.254-3.846 15.354-7.653 22.924-10.774 33.049-15.69 46.57-22.611 12.615-6.456 18.592-9.392 32.769-16.09 12.855-6.076 12.122-3.88 12.689-37.971.495-29.78.495-29.78-8.477-34.694-59.943-32.843-49.858-110.001 16.811-128.608 28.786-8.034 60.403 1.772 82.046 25.447 20.068 21.952 19.466 62.238-1.271 85.137-8.266 9.127-29.895 22.675-36.199 22.675-.78 0-1.477 1.687-1.548 3.75-.071 2.062-.494 20.102-.938 40.09-1.085 48.761.827 45.314-34.585 62.372-8.256 3.978-18.952 9.213-23.768 11.634-4.816 2.422-11.009 5.427-13.761 6.679-2.752 1.252-8.381 4.018-12.51 6.149-4.128 2.131-14.061 7.067-22.071 10.969-8.011 3.903-17.466 8.672-21.008 10.599-3.544 1.926-6.774 3.504-7.179 3.504-.404 0-5.586 2.531-11.516 5.626-9.372 4.89-22.11 11.26-37.678 18.843-2.408 1.173-6.067 3.063-8.131 4.2s-8.82 4.565-15.012 7.618-11.822 5.948-12.51 6.435c-.688.487-4.628 2.521-8.757 4.521-4.128 2-10.883 5.319-15.011 7.377-4.129 2.057-13.131 6.462-20.003 9.789-12.842 6.215-19.536 11.118-22.637 16.578-5.07 8.925-2.154 146.21 3.036 142.964 6.034-3.774 16.608-9.369 17.705-9.369.593 0 1.854-.65 2.803-1.442.948-.793 4.506-2.786 7.907-4.43 14.588-7.047 39.19-19.046 44.965-21.93a928.821 928.821 0 0 1 13.761-6.686c41.865-19.873 42.791-20.514 45.2-31.295 1.781-7.966 5.364-17.729 8.037-21.896.611-.952 2.002-3.354 3.092-5.338 13.794-25.127 61.595-40.337 91.911-29.245 8.92 3.263 20.04 8.021 21.777 9.318.752.56 4.603 3.388 8.559 6.284 3.957 2.896 7.194 5.639 7.194 6.097 0 .458 1.678 2.529 3.731 4.602 13.644 13.776 19.111 48.792 10.57 67.696-.86 1.904-1.589 3.862-1.62 4.354-.361 5.671-15.583 24.221-25.442 31.005-33.926 23.343-76.18 20.021-106.887-8.406-9.785-9.058-20.569-9.492-27.968-1.126-.344.389-5.973 3.255-12.509 6.368-16.711 7.96-24.169 11.623-35.653 17.512-5.504 2.822-12.541 6.291-15.637 7.708-3.096 1.416-5.911 2.864-6.255 3.217-.344.352-2.877 1.687-5.63 2.964-6.656 3.09-19.546 9.467-21.892 10.831-1.032.6-8.276 4.347-16.098 8.325a5190.006 5190.006 0 0 0-18.765 9.58c-19.662 10.154-36.082 7.681-66.466-10.009-4.419-2.573-6.022-3.389-27.521-14.019-6.536-3.231-14.136-7.08-16.888-8.552-2.752-1.472-7.115-3.527-9.695-4.566-2.58-1.04-4.691-2.331-4.691-2.869 0-.538-.637-.979-1.414-.979-.778 0-8.382-3.634-16.898-8.075-8.518-4.442-16.004-8.076-16.637-8.076-.633 0-1.895-.655-2.805-1.456-.908-.801-3.06-2.079-4.78-2.84-1.72-.763-6.505-3.205-10.633-5.428-16.009-8.621-18.258-9.407-19.763-6.906-2.437 4.048-14.987 15.473-20.792 18.928-3.153 1.875-6.412 3.942-7.242 4.594-.831.651-2.253 1.184-3.161 1.184-.909 0-2.763.693-4.119 1.541-12.105 7.562-44.955 7.628-62.703.124-2.168-.916-4.562-1.665-5.317-1.665-.757 0-1.375-.456-1.375-1.015 0-.557-1.696-1.661-3.768-2.452-2.073-.792-5.873-3.172-8.444-5.287-2.572-2.116-5.239-4.313-5.927-4.88-23.535-19.428-31.016-68.201-13.833-90.197.743-.951 2.396-3.547 3.674-5.768 3.269-5.683 19.355-19.718 25.924-22.619 18.283-8.071 17.721-7.953 37.926-7.953 19.978 0 21.629.318 38.254 7.372 23.551 9.992 48.482 43.848 42.996 58.387-.818 2.169 4.893 5.996 10.46 7.009.847.153 2.295.976 3.22 1.827.924.85 4.736 2.839 8.469 4.418 3.733 1.581 7.069 3.183 7.413 3.563.344.38 8.225 4.219 17.514 8.531 25.149 11.677 60.054 28.746 78.186 38.236 13.428 7.027 12 15.212 11.608-66.54-.393-81.76.944-75.655-18.64-85.117-4.39-2.121-10.232-5.056-12.984-6.523-2.752-1.469-7.818-4.035-11.259-5.704-6.211-3.012-10.344-5.126-36.451-18.64-7.473-3.868-14.432-7.397-15.464-7.841-1.032-.446-4.128-2.038-6.88-3.537-2.753-1.501-8.1-4.187-11.885-5.968-3.784-1.78-13.703-6.759-22.042-11.061-8.339-4.302-15.492-7.821-15.895-7.821-.403 0-3.436-1.47-6.741-3.268-3.305-1.797-11.352-5.881-17.882-9.076-20.65-10.102-39.488-19.568-50.028-25.137-4.472-2.363-13.197-6.778-19.39-9.81-43.058-21.086-39.393-11.078-39.405-107.589 0-.477-.788-.866-1.753-.866-9.844 0-35.863-18.597-43.584-31.151-22.568-36.699.234-92.531 41.225-100.941 17.945-3.683 21.924-4.193 29.131-3.732 45.741 2.923 78.331 40.494 71.448 82.37-1.306 7.949-5.553 19.503-7.773 21.152-.427.317-1.655 2.134-2.73 4.037-2.817 4.992-13.116 14.726-19.663 18.583-3.096 1.824-5.911 3.579-6.255 3.904-.344.323-2.735 1.487-5.316 2.587-4.691 2.001-4.691 2.001-4.674 31.726.021 36.971-1.361 33.178 14.758 40.492 7.354 3.336 19.564 9.177 27.132 12.98 7.569 3.803 16.294 8.063 19.39 9.465 3.097 1.404 5.911 2.853 6.255 3.221.344.367 5.411 3.025 11.259 5.907 21.668 10.674 27.165 13.422 38.78 19.384 6.537 3.355 17.514 8.796 24.394 12.091 6.881 3.294 17.654 8.671 23.94 11.946 6.286 3.276 12.057 5.956 12.823 5.956.765 0 1.392.441 1.392.979s2.112 1.819 4.691 2.844c2.581 1.027 5.536 2.38 6.568 3.008 1.032.628 6.655 3.631 12.496 6.673 11.982 6.241 12.156 6.335 22.138 11.876 4.001 2.221 7.693 4.209 8.206 4.421.512.211.929-45.475.927-101.522-.004-56.049.357-108.655.803-116.904 1.497-27.759-.272-43.969-4.972-45.578-2.17-.742-5.494-2.112-7.385-3.043-1.892-.932-3.441-1.324-3.441-.873 0 .452-.985.049-2.189-.893-1.203-.943-5.004-3.185-8.444-4.985-32.778-17.141-55.897-69.968-43.321-98.99.77-1.777 1.677-4.633 2.016-6.345 7.569-38.285 64.577-67.651 112.3-57.848ZM425.569 390.521c26.464 6.704 44.703 25.968 47.152 49.799 5.705 55.554-74.771 82.333-111.619 37.143-33.457-41.032 10.687-100.566 64.467-86.942Zm266.782.537c16.136 1.955 25.16 5.871 35.586 15.441 40.934 37.578 3.473 102.83-52.945 92.227-64.902-12.198-67.003-93.537-2.771-107.238 8.987-1.918 8.023-1.897 20.13-.43Zm-491.586 168.24c37.534 10.12 54.791 46.733 37.82 80.239-11.991 23.678-47.538 36.695-75.511 27.652-74.627-24.121-38.213-128.358 37.691-107.891Zm724.828-1.601c21.954 5.255 34.842 14.831 45.734 33.979 4.461 7.843 4.437 33.085-.042 43.263-16.544 37.598-70.816 47.438-102.187 18.527-42.165-38.859-.539-109.423 56.495-95.769ZM561.101 893.305c35.058 9.73 46.442 52.669 20.104 75.834-41.49 36.491-103.534-8.087-75.543-54.276 11.576-19.099 33.534-27.638 55.439-21.558Z" clip-rule="evenodd"/>
  <path fill="#fff" fill-rule="evenodd" d="M528.984 39.02c-11.68 1.485-34.694 10.288-48.082 18.39-3.694 2.236-4.365 2.6-19.47 10.609-6.193 3.282-12.948 6.766-15.012 7.742s-4.034 2.076-4.378 2.443c-.658.701-4.122 2.517-14.255 7.473-3.368 1.647-6.746 3.44-7.506 3.985-.761.544-4.552 2.57-8.427 4.503-3.873 1.93-12.991 6.678-20.262 10.549-7.27 3.869-13.431 7.036-13.693 7.036-.261 0-10.75 5.451-23.308 12.113-12.557 6.663-23.351 12.114-23.985 12.114-.633 0-1.152.484-1.152 1.076 0 .592-1.256 1.444-2.791 1.892-1.535.45-4.208 1.707-5.942 2.793-3.049 1.912-37.692 19.997-53.386 27.87-4.237 2.125-12.962 6.668-19.39 10.095-14.281 7.614-18.816 9.995-26.075 13.683-5.928 3.013-17.927 9.281-21.503 11.234-6.964 3.804-39.791 20.997-57.934 30.343-46.914 24.167-59.698 38.164-67.108 73.487-2.95 14.047-2.465 462.011.511 473.301 7.004 26.58 25.636 48.174 52.988 61.405 4.044 1.958 8.199 4.023 9.231 4.59 8.086 4.449 57.055 29.398 68.178 34.737 13.416 6.439 35.187 17.39 40.031 20.137 1.376.779 5.88 3.104 10.008 5.165 31.965 15.957 46.287 23.442 46.702 24.408.231.533.96.969 1.623.969 1.08 0 11.718 5.332 24.594 12.327 5.079 2.759 7.211 3.876 18.402 9.649 11.897 6.138 17.166 8.837 22.31 11.432 21.145 10.668 50.842 26.128 53.523 27.864 1.802 1.168 4.617 2.661 6.255 3.319 1.638.658 4.667 2.165 6.731 3.347 5.935 3.4 19.656 10.68 23.769 12.61 2.064.97 4.034 2.12 4.378 2.56.344.44 1.889 1.16 3.433 1.61 1.544.44 3.541 1.42 4.44 2.17 2.599 2.18 33.353 16.54 40.915 19.1 20.838 7.07 52.715 7.14 70.68.14 6.624-2.57 26.002-11.55 35.028-16.22 4.816-2.49 9.882-5.05 11.258-5.68 1.376-.64 3.347-1.65 4.379-2.26 6.624-3.89 32.401-17.363 33.215-17.363.545 0 1.878-.705 2.964-1.568 1.087-.861 5.916-3.522 10.732-5.911 7.181-3.563 42.423-22.111 49.414-26.007 1.032-.576 4.973-2.553 8.757-4.395 3.784-1.842 8.85-4.457 11.258-5.813 2.409-1.354 6.068-3.254 8.132-4.222 2.064-.968 5.442-2.718 7.506-3.89 6.829-3.878 19.873-10.668 30.023-15.632 24.689-12.071 33.374-16.402 45.661-22.771 7.224-3.743 13.979-7.303 15.011-7.909 1.032-.607 3.163-1.615 4.735-2.241 1.573-.625 11.143-5.475 21.267-10.776 20.865-10.925 29.442-15.313 38.424-19.652 3.44-1.662 8.506-4.295 11.258-5.85 9.977-5.637 23.056-12.186 24.336-12.186.72 0 1.309-.396 1.309-.88 0-.485 3.855-2.609 8.566-4.721 26.748-11.991 46.83-35.31 54.1-62.817 3.76-14.217 3.71-463.938-.05-478.457-1.34-5.16-3.02-10.037-3.74-10.836-.72-.799-.94-1.795-.49-2.213.46-.417.14-.759-.71-.759-.84 0-1.24-.437-.88-.971 4.54-6.769-38.3-46.713-50.095-46.713-.934 0-1.697-.46-1.697-1.021 0-.561-1.829-1.793-4.065-2.739-2.237-.945-6.318-2.971-9.07-4.501-2.752-1.529-5.848-3.169-6.88-3.641-1.032-.473-6.38-3.231-11.885-6.13-5.504-2.898-11.415-5.908-13.135-6.686-1.72-.778-3.972-1.922-5.004-2.54-2.033-1.22-25.178-13.207-36.218-18.76-8.517-4.283-23.241-12.037-28.207-14.853-2.064-1.171-5.442-2.923-7.506-3.894-2.064-.97-6.286-3.106-9.382-4.746a930.07 930.07 0 0 0-11.259-5.847c-3.096-1.575-7.318-3.798-9.382-4.939-5.886-3.256-37.845-20.024-47.537-24.943-4.817-2.445-11.009-5.637-13.761-7.094-2.752-1.457-6.693-3.445-8.757-4.419-2.064-.972-6.286-3.093-9.382-4.713a1451.796 1451.796 0 0 0-11.672-6.017c-3.322-1.691-8.107-4.218-10.633-5.615-2.524-1.398-5.435-2.921-6.468-3.385-4.872-2.189-55.258-28.372-63.174-32.826-2.064-1.162-8.538-4.564-14.386-7.56-5.848-2.996-12.885-6.75-15.637-8.34-24.848-14.363-52.773-19.977-81.314-16.348Zm46.287 124.644c60.968 20.649 87.877 77.556 60.281 127.481-1.402 2.538-2.875 4.875-3.272 5.192-.398.317-2.409 2.876-4.472 5.686-11.514 15.691-30.907 28.731-52.225 35.118-2.318.694-3.56 259.418-1.251 260.681.517.281 3.472-.702 6.568-2.184 3.096-1.483 6.474-3.076 7.506-3.54 1.032-.464 9.36-4.771 18.505-9.573 9.146-4.803 18.435-9.628 20.642-10.724 18.424-9.154 37.809-18.716 44.043-21.726 4.128-1.993 8.068-4.015 8.756-4.494 1.158-.805 4.634-2.576 25.02-12.744 14.399-7.183 31.338-15.425 40.031-19.478 4.816-2.245 9.038-4.362 9.382-4.703.344-.342 3.159-1.847 6.255-3.347 8.028-3.888 27.153-13.249 33.777-16.533 16.878-8.367 15.629-4.823 16.09-45.676.264-23.404.264-23.404-3.848-25.141-74.231-31.375-49.101-134.302 32.793-134.311 83.492-.011 106.226 104.776 29.271 134.921-7.473 2.928-7.978 6.393-8.011 54.856-.024 35.736-.827 37.118-29.42 50.617-7.553 3.565-18.517 8.873-24.366 11.796a7047.67 7047.67 0 0 1-17.513 8.722 11562.31 11562.31 0 0 0-21.892 10.898c-8.257 4.119-17.264 8.532-20.016 9.805-2.752 1.273-7.256 3.535-10.008 5.025-2.752 1.491-7.818 4.048-11.259 5.684-3.44 1.636-10.195 4.969-15.011 7.406a5576.09 5576.09 0 0 1-34.089 17.11c-4.644 2.308-12.721 6.461-17.949 9.229-5.228 2.768-10.154 5.032-10.946 5.032-.793 0-1.441.479-1.441 1.064 0 .586-1.971 1.665-4.379 2.397-2.408.733-4.378 1.812-4.378 2.398 0 .585-.554 1.063-1.234 1.063-.678 0-8.418 3.558-17.201 7.908a16618.102 16618.102 0 0 1-25.975 12.836c-10.915 5.375-16.15 9.286-18.876 14.097-2.024 3.572-2.693 142.159-.693 143.3.591.335 4.162-1.105 7.936-3.201 3.776-2.097 7.656-4.162 8.623-4.591.967-.428 3.729-1.885 6.138-3.236 4.379-2.458 11.096-5.798 36.903-18.347 7.569-3.68 16.294-7.98 19.39-9.555 3.097-1.575 12.104-5.984 20.016-9.797 35.065-16.9 35.609-17.283 36.7-25.787 11.156-86.978 159.703-77.471 159.703 10.221 0 71.953-88.663 104.042-141.645 51.265-7.778-7.747-5.907-8.222-45.376 11.555-3.44 1.724-8.225 4.102-10.633 5.285-7.703 3.784-26.653 13.326-34.402 17.324-4.128 2.13-9.757 4.891-12.509 6.136-2.753 1.245-7.256 3.461-10.008 4.925-2.752 1.463-10.071 5.18-16.263 8.258-15.068 7.492-16.892 8.437-21.267 11.03-23.305 13.811-35.533 13.173-66.927-3.489-13.326-7.074-35.516-18.248-47.537-23.94-3.096-1.465-6.474-3.155-7.506-3.754-3.89-2.26-31.389-16.267-34.087-17.364-1.549-.63-5.068-2.333-7.82-3.785-26.719-14.096-39.994-20.497-40.368-19.464-.245.68-2.344 3.447-4.665 6.152-2.32 2.704-3.887 5.411-3.481 6.017.406.606.186.787-.488.403-.673-.384-4.56 1.786-8.637 4.822-52.41 39.045-129.298 4.495-129.366-58.13-.056-52.482 46.778-86.051 100.617-72.119 31.362 8.116 58.241 36.337 58.241 61.15 0 5.455 0 5.455 9.695 10.053 5.331 2.529 16.88 8.055 25.664 12.279 18.779 9.031 20.798 9.994 23.922 11.427 3.837 1.758 24.462 11.738 33.916 16.412 4.817 2.38 12.135 5.955 16.263 7.945 4.128 1.99 7.787 3.886 8.131 4.212.344.328 4.285 2.334 8.757 4.46 4.472 2.126 8.546 4.455 9.051 5.175 2.522 3.589 1.016-140.49-1.509-144.308-2.51-3.799-10.699-9.944-16.299-12.233-2.961-1.21-41.04-20.49-45.035-22.802-1.032-.596-3.425-1.647-5.316-2.335-1.892-.687-3.441-1.719-3.441-2.291 0-.572-.63-1.041-1.399-1.041-.771 0-4.57-1.747-8.444-3.885-3.875-2.137-11.267-5.966-16.427-8.509l-18.139-8.938a2081.924 2081.924 0 0 1-15.012-7.474 6569.208 6569.208 0 0 0-16.263-8.172 2311.174 2311.174 0 0 1-15.011-7.581c-2.752-1.412-8.382-4.164-12.51-6.114-4.128-1.95-13.135-6.403-20.016-9.895-6.88-3.493-14.198-7.142-16.262-8.11-2.064-.968-6.005-3.048-8.757-4.621-6.787-3.881-29.587-15.203-42.533-21.12-21.523-9.838-22.532-12.551-22.459-60.455.06-38.929.06-38.929-5.629-40.907-11.728-4.076-26.009-13.4-32.745-21.378-2.284-2.707-4.458-5.181-4.832-5.499-2.042-1.736-9.03-17.109-10.064-22.137-10.687-51.969 35.963-95.16 91.283-84.516 63.191 12.158 82.163 88.725 30.716 123.964-6.01 4.116-12.834 7.85-15.075 8.248-2.31.409-2.439 1.803-2.774 29.832-.446 37.176-2.121 32.97 16.618 41.716 8.603 4.015 20.003 9.459 25.333 12.097 5.329 2.639 11.379 5.599 13.443 6.578 2.064.98 8.819 4.427 15.012 7.661 6.192 3.234 12.947 6.64 15.011 7.571 2.065.931 4.598 2.195 5.63 2.807 1.032.613 9.195 4.779 18.139 9.257 8.945 4.479 17.107 8.622 18.139 9.207 1.032.584 5.536 2.802 10.008 4.926 14.265 6.774 33.019 16.131 48.788 24.34 18.598 9.683 31.641 16.402 34.796 17.924 1.848.892 3.546 2.061 3.775 2.596.231.537 1.139.975 2.021.975.882 0 3.085 1.074 4.893 2.387 3.291 2.386 3.291 2.386 3.286-99.504-.004-56.041.357-108.64.803-116.889 1.101-20.408-.421-44.416-2.814-44.416-1.827 0-19.127-7.579-26.547-11.632-3.853-2.105-12.209-8.767-17.962-14.321-1.313-1.266-4.166-4.9-6.343-8.075-2.177-3.175-4.296-6.033-4.71-6.35-.858-.658-4.677-8.243-8.421-16.728-15.648-35.456 2.943-89.352 36.25-105.091 2.263-1.07 4.398-2.299 4.742-2.729 1.673-2.097 21.016-9.154 28.772-10.497 10.959-1.898 41.076-.452 49.414 2.372ZM423.902 389.933c14.522 2.773 34.168 15.198 39.46 24.955.943 1.738 2.349 3.94 3.125 4.891 36.193 44.396-46.107 106.149-93.106 69.863-43.267-33.404-25.44-91.44 31.131-101.351 3.629-.636 10.526-.052 19.39 1.642Zm283.046 3.989c12.097 4.153 31.55 18.979 31.582 24.069.005.666.793 2.599 1.753 4.295 12.606 22.282-.163 59.482-24.287 70.756-54.854 25.634-108.768-21.522-84.412-73.831 10.456-22.458 47.454-34.871 75.364-25.289ZM194.636 557.795c74.01 13.465 63.655 112.063-11.794 112.3-22.269.071-45.028-12.261-53.96-29.236-6.318-12.007-6.465-12.6-6.465-26.11 0-38.363 32.693-64.146 72.219-56.954Zm733.409.331c39.62 9.84 62.706 58.812 39.786 84.402-.897 1.002-1.631 2.225-1.631 2.717 0 5.486-20.641 18.944-34.768 22.67-47.026 12.402-92.806-27.748-77.721-68.163 12.616-33.801 41.259-49.84 74.334-41.626ZM557.131 892.253c50.465 10.811 51.734 77.249 1.697 88.75-48.518 11.152-80.024-42.165-45.11-76.337 12.318-12.057 26.351-16.069 43.413-12.413Z" clip-rule="evenodd"/>
</svg>
